<?xml version="1.0" encoding="UTF-8" standalone="no"?><svg xmlns="http://www.w3.org/2000/svg" xmlns:xlink="http://www.w3.org/1999/xlink" version="1.1" width="256" height="256" viewBox="0 0 256 256" xml:space="preserve">

<defs>
</defs>
<g style="stroke: none; stroke-width: 0; stroke-dasharray: none; stroke-linecap: butt; stroke-linejoin: miter; stroke-miterlimit: 10; fill: none; fill-rule: nonzero; opacity: 1;" transform="translate(1.4065934065934016 1.4065934065934016) scale(2.81 2.81)" >
	<path d="M 45 3 c 2.69 0 4.878 2.188 4.878 4.878 v 2.825 c 0 2.69 -2.188 4.878 -4.879 4.878 c -2.69 0 -4.878 -2.188 -4.878 -4.878 V 7.879 C 40.121 5.188 42.31 3 45 3 M 45 0 L 45 0 c -4.333 0 -7.879 3.545 -7.879 7.878 v 2.825 c 0 4.333 3.545 7.878 7.878 7.878 h 0 c 4.333 0 7.878 -3.545 7.878 -7.878 V 7.879 C 52.879 3.545 49.333 0 45 0 L 45 0 z" style="stroke: none; stroke-width: 1; stroke-dasharray: none; stroke-linecap: butt; stroke-linejoin: miter; stroke-miterlimit: 10; fill: rgb(0,0,0); fill-rule: nonzero; opacity: 1;" transform=" matrix(1 0 0 1 0 0) " stroke-linecap="round" />
	<path d="M 49.815 22.793 C 53.965 23.802 57 27.586 57 31.917 v 6.506 H 33 v -6.506 c 0 -4.331 3.035 -8.114 7.185 -9.124 c 1.529 0.63 3.173 0.959 4.815 0.959 S 48.286 23.423 49.815 22.793 M 49.436 19.665 c -1.333 0.69 -2.839 1.087 -4.436 1.087 s -3.103 -0.397 -4.436 -1.087 C 34.607 20.554 30 25.723 30 31.917 v 8.15 c 0 0.746 0.61 1.356 1.356 1.356 h 27.288 c 0.746 0 1.356 -0.61 1.356 -1.356 v -8.15 C 60 25.723 55.393 20.554 49.436 19.665 L 49.436 19.665 z" style="stroke: none; stroke-width: 1; stroke-dasharray: none; stroke-linecap: butt; stroke-linejoin: miter; stroke-miterlimit: 10; fill: rgb(0,0,0); fill-rule: nonzero; opacity: 1;" transform=" matrix(1 0 0 1 0 0) " stroke-linecap="round" />
	<path d="M 75 51.578 c 2.69 0 4.879 2.188 4.879 4.879 v 2.825 c 0 2.69 -2.188 4.879 -4.879 4.879 s -4.879 -2.188 -4.879 -4.879 v -2.825 C 70.121 53.766 72.31 51.578 75 51.578 M 75 48.578 L 75 48.578 c -4.333 0 -7.879 3.545 -7.879 7.879 v 2.825 c 0 4.333 3.545 7.879 7.879 7.879 h 0 c 4.333 0 7.879 -3.545 7.879 -7.879 v -2.825 C 82.879 52.123 79.333 48.578 75 48.578 L 75 48.578 z" style="stroke: none; stroke-width: 1; stroke-dasharray: none; stroke-linecap: butt; stroke-linejoin: miter; stroke-miterlimit: 10; fill: rgb(0,0,0); fill-rule: nonzero; opacity: 1;" transform=" matrix(1 0 0 1 0 0) " stroke-linecap="round" />
	<path d="M 79.815 71.371 C 83.965 72.38 87 76.164 87 80.494 V 87 H 63 v -6.506 c 0 -4.331 3.035 -8.114 7.185 -9.124 c 1.529 0.63 3.173 0.959 4.815 0.959 S 78.286 72.001 79.815 71.371 M 79.436 68.243 c -1.333 0.69 -2.839 1.087 -4.436 1.087 s -3.103 -0.397 -4.436 -1.087 C 64.607 69.132 60 74.301 60 80.494 v 8.15 C 60 89.39 60.61 90 61.356 90 h 27.288 C 89.39 90 90 89.39 90 88.644 v -8.15 C 90 74.301 85.393 69.132 79.436 68.243 L 79.436 68.243 z" style="stroke: none; stroke-width: 1; stroke-dasharray: none; stroke-linecap: butt; stroke-linejoin: miter; stroke-miterlimit: 10; fill: rgb(0,0,0); fill-rule: nonzero; opacity: 1;" transform=" matrix(1 0 0 1 0 0) " stroke-linecap="round" />
	<path d="M 15 51.578 c 2.69 0 4.879 2.188 4.879 4.879 v 2.825 c 0 2.69 -2.188 4.879 -4.879 4.879 c -2.69 0 -4.879 -2.188 -4.879 -4.879 v -2.825 C 10.121 53.766 12.31 51.578 15 51.578 M 15 48.578 L 15 48.578 c -4.333 0 -7.879 3.545 -7.879 7.879 v 2.825 c 0 4.333 3.545 7.879 7.879 7.879 h 0 c 4.333 0 7.879 -3.545 7.879 -7.879 v -2.825 C 22.879 52.123 19.333 48.578 15 48.578 L 15 48.578 z" style="stroke: none; stroke-width: 1; stroke-dasharray: none; stroke-linecap: butt; stroke-linejoin: miter; stroke-miterlimit: 10; fill: rgb(0,0,0); fill-rule: nonzero; opacity: 1;" transform=" matrix(1 0 0 1 0 0) " stroke-linecap="round" />
	<path d="M 19.815 71.371 C 23.965 72.38 27 76.164 27 80.494 V 87 H 3 v -6.506 c 0 -4.331 3.035 -8.114 7.185 -9.124 c 1.529 0.63 3.173 0.959 4.815 0.959 S 18.286 72.001 19.815 71.371 M 19.436 68.243 c -1.333 0.69 -2.839 1.087 -4.436 1.087 s -3.103 -0.397 -4.436 -1.087 C 4.607 69.132 0 74.301 0 80.494 v 8.15 C 0 89.39 0.61 90 1.356 90 h 27.288 C 29.39 90 30 89.39 30 88.644 v -8.15 C 30 74.301 25.393 69.132 19.436 68.243 L 19.436 68.243 z" style="stroke: none; stroke-width: 1; stroke-dasharray: none; stroke-linecap: butt; stroke-linejoin: miter; stroke-miterlimit: 10; fill: rgb(0,0,0); fill-rule: nonzero; opacity: 1;" transform=" matrix(1 0 0 1 0 0) " stroke-linecap="round" />
	<rect x="43.5" y="44.75" rx="0" ry="0" width="3" height="36.01" style="stroke: none; stroke-width: 1; stroke-dasharray: none; stroke-linecap: butt; stroke-linejoin: miter; stroke-miterlimit: 10; fill: rgb(0,0,0); fill-rule: nonzero; opacity: 1;" transform=" matrix(1 0 0 1 0 0) "/>
	<rect x="33.82" y="79.57" rx="0" ry="0" width="21.84" height="3" style="stroke: none; stroke-width: 1; stroke-dasharray: none; stroke-linecap: butt; stroke-linejoin: miter; stroke-miterlimit: 10; fill: rgb(0,0,0); fill-rule: nonzero; opacity: 1;" transform=" matrix(1 0 0 1 0 0) "/>
</g>
</svg>