<?xml version="1.0" encoding="utf-8"?>
<!-- Generator: Adobe Illustrator 27.2.0, SVG Export Plug-In . SVG Version: 6.00 Build 0)  -->
<svg version="1.1" id="Layer_1" xmlns="http://www.w3.org/2000/svg" xmlns:xlink="http://www.w3.org/1999/xlink" x="0px" y="0px"
	 viewBox="0 0 16 16" style="enable-background:new 0 0 16 16;" xml:space="preserve">
<style type="text/css">
	.st0{fill:#232323;}
	.st1{fill:#F5BD00;}
</style>
<rect x="0" y="0" class="st0" width="16" height="16"/>
<path class="st1" d="M9.94,8.22C9.84,7.41,9.36,5.9,9.18,5.8C9.04,5.73,6.9,5.74,6.8,5.81C6.71,5.87,6.41,6.72,6.22,7.43
	C6.07,7.95,6.02,8.68,6.1,9c0.26,1.01,1.24,1.67,2.22,1.49c0.8-0.15,1.39-0.72,1.6-1.52C9.99,8.71,9.99,8.61,9.94,8.22z M9.78,8.64
	c-0.03,0.64-0.4,1.17-1.02,1.48C8.48,10.26,8.41,10.28,8,10.28c-0.39,0-0.49-0.02-0.72-0.13c-0.56-0.26-1-0.84-1.07-1.41L6.18,8.49
	l0.2,0.13c0.43,0.27,0.82,0.33,1.17,0.17c0.11-0.05,0.37-0.25,0.58-0.45c0.21-0.2,0.48-0.4,0.59-0.45C9.1,7.7,9.5,7.8,9.71,8.13
	C9.79,8.26,9.8,8.34,9.78,8.64z M12.43,3.62C11.34,2.54,9.87,2,8.01,2c-1.82,0-3.29,0.55-4.4,1.65C2.49,4.75,1.94,6.2,1.94,8
	c0,1.2,0.25,2.25,0.75,3.16c0.5,0.91,1.21,1.61,2.13,2.1c0.85,0.45,1.81,0.69,2.91,0.73c0.03-1.13,0.01-2.77-0.06-2.91
	C7.61,11,7.49,10.92,7.32,10.86c-0.88-0.3-1.44-0.85-1.69-1.65c-0.21-0.67-0.1-1.58,0.33-2.92c0.27-0.83,0.4-1.14,0.51-1.23
	C6.54,5,6.94,4.99,8.02,4.99c1.33,0,1.47,0.01,1.55,0.09c0.1,0.11,0.42,0.95,0.6,1.59c0.33,1.13,0.39,2.05,0.19,2.61
	c-0.3,0.79-0.85,1.32-1.69,1.58c-0.12,0.04-0.25,0.09-0.28,0.12c-0.05,0.04-0.07,0.52-0.07,2.07V14c1.68-0.06,3.04-0.61,4.09-1.64
	c1.11-1.1,1.66-2.55,1.66-4.35C14.06,6.16,13.52,4.7,12.43,3.62z"/>
</svg>
